<?xml version="1.0" standalone="no"?>
<!DOCTYPE svg PUBLIC "-//W3C//DTD SVG 20010904//EN"
 "http://www.w3.org/TR/2001/REC-SVG-20010904/DTD/svg10.dtd">
<svg version="1.0" xmlns="http://www.w3.org/2000/svg"
 width="512.000000pt" height="512.000000pt" viewBox="0 0 512.000000 512.000000"
 preserveAspectRatio="xMidYMid meet">
<metadata>
Created by potrace 1.11, written by Peter Selinger 2001-2013
</metadata>
<g transform="translate(0.000000,512.000000) scale(0.100000,-0.100000)"
fill="#000000" stroke="none">
<path d="M3917 4055 c-1 -2 -40 -5 -87 -9 -85 -7 -101 -8 -175 -20 -179 -28
-396 -85 -525 -139 -14 -6 -27 -11 -30 -12 -9 -3 -53 -22 -110 -47 -30 -14
-58 -24 -61 -24 -4 1 -15 -6 -25 -14 -11 -9 -32 -22 -49 -30 -63 -31 -240
-142 -318 -201 -160 -121 -317 -270 -438 -415 -23 -28 -33 -32 -100 -38 -201
-19 -411 -99 -564 -216 -22 -17 -183 -179 -202 -203 -53 -68 -133 -216 -154
-285 -11 -38 -10 -45 4 -60 16 -15 20 -15 65 2 96 38 158 57 207 64 64 9 205
8 268 -2 40 -6 47 -10 42 -24 -18 -44 -10 -92 15 -92 9 0 98 -38 109 -46 2 -2
-1 -10 -8 -17 -19 -23 -57 -101 -56 -116 0 -8 32 -36 70 -62 39 -26 98 -75
132 -108 59 -58 143 -169 143 -190 0 -26 49 -22 106 8 58 31 84 29 84 -5 0
-19 36 -85 51 -95 7 -4 29 -1 50 6 37 13 38 13 43 -13 35 -167 18 -334 -51
-497 l-25 -59 22 -18 c25 -20 36 -22 45 -8 3 6 13 10 21 10 18 0 151 65 211
103 128 81 261 224 345 370 44 78 103 223 114 284 11 60 14 81 19 123 3 25 7
63 9 85 3 33 11 46 46 75 52 43 178 167 245 240 196 213 382 520 488 806 42
111 108 355 122 449 20 132 24 167 31 301 5 93 4 123 -6 129 -11 7 -116 15
-123 10z"/>
<path d="M1577 1989 c-106 -26 -191 -103 -237 -218 -17 -42 -35 -85 -40 -96
-15 -32 -150 -363 -178 -435 -14 -36 -29 -69 -33 -75 -14 -15 -10 -62 7 -75
16 -14 34 -8 504 185 214 87 238 99 284 140 71 65 117 174 110 260 -6 65 -25
133 -40 146 -8 6 -14 17 -14 23 0 30 -96 108 -161 132 -54 19 -151 26 -202 13z"/>
</g>
</svg>
